<svg width="240" height="48" viewBox="0 0 240 48" fill="none" xmlns="http://www.w3.org/2000/svg">
<rect width="240" height="48" rx="8" fill="white"/>
<rect x="0.5" y="0.5" width="239" height="47" rx="7.5" stroke="black" stroke-opacity="0.08"/>
<path d="M45.7806 30.424C45.4328 31.2275 45.0211 31.9672 44.5441 32.6472C43.8939 33.5743 43.3615 34.216 42.9512 34.5724C42.3151 35.1573 41.6337 35.4568 40.9039 35.4739C40.3801 35.4739 39.7483 35.3248 39.0129 35.0224C38.2751 34.7214 37.597 34.5724 36.977 34.5724C36.3268 34.5724 35.6294 34.7214 34.8835 35.0224C34.1365 35.3248 33.5347 35.4824 33.0745 35.498C32.3748 35.5278 31.6772 35.2198 30.981 34.5724C30.5367 34.1848 29.9808 33.5204 29.315 32.5791C28.6006 31.5739 28.0133 30.4084 27.5531 29.0795C27.0604 27.6442 26.8133 26.2543 26.8133 24.9087C26.8133 23.3673 27.1464 22.0379 27.8135 20.9239C28.3378 20.029 29.0353 19.3231 29.9083 18.8049C30.7813 18.2867 31.7245 18.0227 32.7403 18.0058C33.2961 18.0058 34.025 18.1777 34.9308 18.5156C35.834 18.8546 36.414 19.0266 36.6682 19.0266C36.8583 19.0266 37.5026 18.8255 38.5948 18.4247C39.6276 18.0531 40.4993 17.8992 41.2134 17.9598C43.1485 18.116 44.6023 18.8788 45.5691 20.253C43.8385 21.3016 42.9824 22.7703 42.9994 24.6544C43.0151 26.122 43.5474 27.3432 44.5938 28.3129C45.068 28.7629 45.5975 29.1107 46.1867 29.3578C46.0589 29.7283 45.924 30.0832 45.7806 30.424V30.424ZM41.3426 12.9601C41.3426 14.1104 40.9224 15.1844 40.0848 16.1785C39.0739 17.3602 37.8513 18.0431 36.5254 17.9354C36.5085 17.7974 36.4987 17.6521 36.4987 17.4995C36.4987 16.3953 36.9794 15.2135 37.8331 14.2472C38.2593 13.758 38.8014 13.3512 39.4587 13.0267C40.1146 12.7071 40.735 12.5303 41.3185 12.5C41.3355 12.6538 41.3426 12.8076 41.3426 12.9601V12.9601Z" fill="black"/>
<path d="M71.9795 26.521C71.9795 26.2427 71.9362 25.9953 71.8496 25.7788C71.7692 25.5623 71.6239 25.3644 71.4136 25.1851C71.2033 25.0057 70.9064 24.8325 70.5229 24.6655C70.1457 24.4924 69.6632 24.3161 69.0757 24.1367C68.4325 23.9388 67.8387 23.7192 67.2944 23.478C66.7563 23.2306 66.2863 22.9461 65.8843 22.6245C65.4823 22.2967 65.1699 21.9225 64.9473 21.502C64.7246 21.0752 64.6133 20.5835 64.6133 20.0269C64.6133 19.4764 64.7277 18.9754 64.9565 18.5239C65.1916 18.0724 65.5225 17.6828 65.9492 17.355C66.3822 17.021 66.8924 16.7643 67.48 16.585C68.0675 16.3994 68.717 16.3066 69.4282 16.3066C70.4302 16.3066 71.293 16.4922 72.0166 16.8633C72.7464 17.2344 73.3062 17.7323 73.6958 18.3569C74.0916 18.9816 74.2896 19.6712 74.2896 20.4258H71.9795C71.9795 19.9805 71.8836 19.5877 71.6919 19.2476C71.5063 18.9012 71.2218 18.6291 70.8384 18.4312C70.4611 18.2332 69.9818 18.1343 69.4004 18.1343C68.8499 18.1343 68.3923 18.2178 68.0273 18.3848C67.6624 18.5518 67.3903 18.7775 67.2109 19.062C67.0316 19.3465 66.9419 19.6681 66.9419 20.0269C66.9419 20.2804 67.0007 20.5124 67.1182 20.7227C67.2357 20.9268 67.415 21.1185 67.6562 21.2979C67.8975 21.471 68.2005 21.6349 68.5654 21.7896C68.9303 21.9442 69.3602 22.0926 69.855 22.2349C70.6034 22.4575 71.2559 22.7049 71.8125 22.9771C72.3691 23.243 72.833 23.5461 73.2041 23.8862C73.5752 24.2264 73.8535 24.613 74.0391 25.0459C74.2246 25.4727 74.3174 25.9582 74.3174 26.5024C74.3174 27.0715 74.203 27.5848 73.9741 28.0425C73.7453 28.494 73.4175 28.8805 72.9907 29.2021C72.5701 29.5176 72.063 29.7619 71.4692 29.9351C70.8817 30.1021 70.2261 30.1855 69.5024 30.1855C68.853 30.1855 68.2129 30.099 67.582 29.9258C66.9574 29.7526 66.3883 29.4897 65.875 29.1372C65.3617 28.7785 64.9535 28.3332 64.6504 27.8013C64.3473 27.2632 64.1958 26.6354 64.1958 25.918H66.5244C66.5244 26.3571 66.5986 26.7313 66.7471 27.0405C66.9017 27.3498 67.1151 27.6034 67.3872 27.8013C67.6593 27.993 67.9748 28.1353 68.3335 28.228C68.6984 28.3208 69.0881 28.3672 69.5024 28.3672C70.0467 28.3672 70.5013 28.2899 70.8662 28.1353C71.2373 27.9806 71.5156 27.7642 71.7012 27.4858C71.8867 27.2075 71.9795 26.8859 71.9795 26.521ZM78.5479 19.9619V30H76.3027V19.9619H78.5479ZM76.1543 17.3271C76.1543 16.987 76.2656 16.7056 76.4883 16.4829C76.7171 16.2541 77.0326 16.1396 77.4346 16.1396C77.8304 16.1396 78.1427 16.2541 78.3716 16.4829C78.6004 16.7056 78.7148 16.987 78.7148 17.3271C78.7148 17.6611 78.6004 17.9395 78.3716 18.1621C78.1427 18.3848 77.8304 18.4961 77.4346 18.4961C77.0326 18.4961 76.7171 18.3848 76.4883 18.1621C76.2656 17.9395 76.1543 17.6611 76.1543 17.3271ZM87.4263 19.9619H89.458V29.7217C89.458 30.6247 89.2663 31.3916 88.8828 32.0225C88.4993 32.6533 87.9644 33.1326 87.2778 33.4604C86.5913 33.7944 85.7965 33.9614 84.8936 33.9614C84.5101 33.9614 84.0833 33.9058 83.6133 33.7944C83.1494 33.6831 82.6979 33.5037 82.2588 33.2563C81.8258 33.0151 81.464 32.6966 81.1733 32.3008L82.2217 30.9834C82.5804 31.4102 82.9762 31.7225 83.4092 31.9204C83.8421 32.1183 84.2967 32.2173 84.7729 32.2173C85.2863 32.2173 85.7223 32.1214 86.0811 31.9297C86.446 31.7441 86.7274 31.4689 86.9253 31.104C87.1232 30.7391 87.2222 30.2938 87.2222 29.7681V22.2349L87.4263 19.9619ZM80.6074 25.0923V24.8975C80.6074 24.1367 80.7002 23.444 80.8857 22.8193C81.0713 22.1885 81.3372 21.6473 81.6836 21.1958C82.0299 20.7381 82.4505 20.3887 82.9453 20.1475C83.4401 19.9001 83.9998 19.7764 84.6245 19.7764C85.2739 19.7764 85.8275 19.8939 86.2852 20.1289C86.749 20.3639 87.1356 20.701 87.4448 21.1401C87.7541 21.5731 87.9953 22.0926 88.1685 22.6987C88.3478 23.2987 88.4808 23.9666 88.5674 24.7026V25.3242C88.487 26.0417 88.3509 26.6973 88.1592 27.291C87.9674 27.8848 87.7139 28.3981 87.3984 28.8311C87.083 29.264 86.6934 29.598 86.2295 29.833C85.7718 30.068 85.2306 30.1855 84.606 30.1855C83.9937 30.1855 83.4401 30.0588 82.9453 29.8052C82.4567 29.5516 82.0361 29.196 81.6836 28.7383C81.3372 28.2806 81.0713 27.7425 80.8857 27.124C80.7002 26.4993 80.6074 25.8221 80.6074 25.0923ZM82.8433 24.8975V25.0923C82.8433 25.55 82.8866 25.9767 82.9731 26.3726C83.0659 26.7684 83.2051 27.1178 83.3906 27.4209C83.5824 27.7178 83.8236 27.9528 84.1143 28.126C84.4111 28.293 84.7606 28.3765 85.1626 28.3765C85.6883 28.3765 86.1182 28.2651 86.4521 28.0425C86.7923 27.8198 87.0521 27.5199 87.2314 27.1426C87.417 26.7591 87.5469 26.3324 87.6211 25.8623V24.1831C87.584 23.8182 87.5067 23.478 87.3892 23.1626C87.2778 22.8472 87.1263 22.5719 86.9346 22.3369C86.7428 22.0957 86.5016 21.9102 86.2109 21.7803C85.9202 21.6442 85.577 21.5762 85.1812 21.5762C84.7791 21.5762 84.4297 21.6628 84.1328 21.8359C83.8359 22.0091 83.5916 22.2472 83.3999 22.5503C83.2144 22.8534 83.0752 23.2059 82.9824 23.6079C82.8896 24.0099 82.8433 24.4398 82.8433 24.8975ZM93.9946 22.105V30H91.7588V19.9619H93.8647L93.9946 22.105ZM93.5957 24.6099L92.8721 24.6006C92.8783 23.8893 92.9772 23.2368 93.1689 22.6431C93.3669 22.0493 93.639 21.5391 93.9854 21.1123C94.3379 20.6855 94.7585 20.3577 95.2471 20.1289C95.7357 19.8939 96.2799 19.7764 96.8799 19.7764C97.3623 19.7764 97.7983 19.8444 98.188 19.9805C98.5838 20.1104 98.9209 20.3237 99.1992 20.6206C99.4837 20.9175 99.7002 21.304 99.8486 21.7803C99.9971 22.2503 100.071 22.8286 100.071 23.5151V30H97.8262V23.5059C97.8262 23.0234 97.755 22.6431 97.6128 22.3647C97.4767 22.0802 97.2757 21.8792 97.0098 21.7617C96.75 21.638 96.4253 21.5762 96.0356 21.5762C95.6522 21.5762 95.3089 21.6566 95.0059 21.8174C94.7028 21.9782 94.4461 22.1978 94.2358 22.4761C94.0317 22.7544 93.874 23.076 93.7627 23.4409C93.6514 23.8058 93.5957 24.1955 93.5957 24.6099ZM109.479 19.9619V30H107.233V19.9619H109.479ZM107.085 17.3271C107.085 16.987 107.196 16.7056 107.419 16.4829C107.648 16.2541 107.963 16.1396 108.365 16.1396C108.761 16.1396 109.073 16.2541 109.302 16.4829C109.531 16.7056 109.646 16.987 109.646 17.3271C109.646 17.6611 109.531 17.9395 109.302 18.1621C109.073 18.3848 108.761 18.4961 108.365 18.4961C107.963 18.4961 107.648 18.3848 107.419 18.1621C107.196 17.9395 107.085 17.6611 107.085 17.3271ZM114.145 22.105V30H111.909V19.9619H114.015L114.145 22.105ZM113.746 24.6099L113.022 24.6006C113.029 23.8893 113.128 23.2368 113.319 22.6431C113.517 22.0493 113.789 21.5391 114.136 21.1123C114.488 20.6855 114.909 20.3577 115.397 20.1289C115.886 19.8939 116.43 19.7764 117.03 19.7764C117.513 19.7764 117.949 19.8444 118.338 19.9805C118.734 20.1104 119.071 20.3237 119.35 20.6206C119.634 20.9175 119.851 21.304 119.999 21.7803C120.147 22.2503 120.222 22.8286 120.222 23.5151V30H117.977V23.5059C117.977 23.0234 117.905 22.6431 117.763 22.3647C117.627 22.0802 117.426 21.8792 117.16 21.7617C116.9 21.638 116.576 21.5762 116.186 21.5762C115.803 21.5762 115.459 21.6566 115.156 21.8174C114.853 21.9782 114.597 22.1978 114.386 22.4761C114.182 22.7544 114.024 23.076 113.913 23.4409C113.802 23.8058 113.746 24.1955 113.746 24.6099ZM129.963 27.7734L132.282 19.9619H133.711L133.321 22.2998L130.983 30H129.703L129.963 27.7734ZM128.599 19.9619L130.408 27.8105L130.557 30H129.128L126.41 19.9619H128.599ZM135.882 27.7178L137.635 19.9619H139.815L137.106 30H135.678L135.882 27.7178ZM133.952 19.9619L136.244 27.6807L136.531 30H135.251L132.885 22.2905L132.496 19.9619H133.952ZM143.73 19.9619V30H141.485V19.9619H143.73ZM141.337 17.3271C141.337 16.987 141.448 16.7056 141.671 16.4829C141.9 16.2541 142.215 16.1396 142.617 16.1396C143.013 16.1396 143.325 16.2541 143.554 16.4829C143.783 16.7056 143.897 16.987 143.897 17.3271C143.897 17.6611 143.783 17.9395 143.554 18.1621C143.325 18.3848 143.013 18.4961 142.617 18.4961C142.215 18.4961 141.9 18.3848 141.671 18.1621C141.448 17.9395 141.337 17.6611 141.337 17.3271ZM150.781 19.9619V21.5947H145.122V19.9619H150.781ZM146.755 17.5034H148.991V27.2261C148.991 27.5353 149.034 27.7734 149.121 27.9404C149.213 28.1012 149.34 28.2095 149.501 28.2651C149.662 28.3208 149.85 28.3486 150.067 28.3486C150.222 28.3486 150.37 28.3394 150.512 28.3208C150.654 28.3022 150.769 28.2837 150.855 28.2651L150.865 29.9722C150.679 30.0278 150.463 30.0773 150.215 30.1206C149.974 30.1639 149.696 30.1855 149.38 30.1855C148.867 30.1855 148.412 30.0959 148.017 29.9165C147.621 29.731 147.312 29.431 147.089 29.0166C146.866 28.6022 146.755 28.0518 146.755 27.3652V17.5034ZM154.715 15.75V30H152.488V15.75H154.715ZM154.325 24.6099L153.602 24.6006C153.608 23.9079 153.704 23.2677 153.889 22.6802C154.081 22.0926 154.347 21.5824 154.687 21.1494C155.033 20.7103 155.448 20.3732 155.93 20.1382C156.413 19.897 156.948 19.7764 157.535 19.7764C158.03 19.7764 158.475 19.8444 158.871 19.9805C159.273 20.1165 159.619 20.3361 159.91 20.6392C160.201 20.936 160.42 21.3257 160.569 21.8081C160.723 22.2843 160.801 22.8657 160.801 23.5522V30H158.556V23.5337C158.556 23.0513 158.485 22.6678 158.342 22.3833C158.206 22.0988 158.005 21.8947 157.739 21.771C157.473 21.6411 157.149 21.5762 156.765 21.5762C156.363 21.5762 156.007 21.6566 155.698 21.8174C155.395 21.9782 155.142 22.1978 154.938 22.4761C154.733 22.7544 154.579 23.076 154.474 23.4409C154.375 23.8058 154.325 24.1955 154.325 24.6099ZM173.279 18.292L169.243 30H166.803L171.887 16.4922H173.446L173.279 18.292ZM176.656 30L172.611 18.292L172.435 16.4922H174.002L179.105 30H176.656ZM176.461 24.9902V26.8364H169.113V24.9902H176.461ZM182.473 21.8916V33.8594H180.237V19.9619H182.296L182.473 21.8916ZM189.013 24.8882V25.083C189.013 25.8128 188.927 26.4901 188.753 27.1147C188.586 27.7332 188.336 28.2744 188.002 28.7383C187.674 29.196 187.269 29.5516 186.787 29.8052C186.304 30.0588 185.748 30.1855 185.117 30.1855C184.492 30.1855 183.945 30.0711 183.475 29.8423C183.011 29.6073 182.618 29.2764 182.296 28.8496C181.975 28.4229 181.715 27.9219 181.517 27.3467C181.325 26.7653 181.189 26.1283 181.109 25.4355V24.6841C181.189 23.9481 181.325 23.2801 181.517 22.6802C181.715 22.0802 181.975 21.5638 182.296 21.1309C182.618 20.6979 183.011 20.3639 183.475 20.1289C183.938 19.8939 184.48 19.7764 185.098 19.7764C185.729 19.7764 186.289 19.9001 186.777 20.1475C187.266 20.3887 187.677 20.735 188.011 21.1865C188.345 21.6318 188.596 22.1699 188.763 22.8008C188.93 23.4255 189.013 24.1213 189.013 24.8882ZM186.777 25.083V24.8882C186.777 24.4243 186.734 23.9945 186.647 23.5986C186.561 23.1966 186.425 22.8441 186.239 22.541C186.054 22.238 185.816 22.0029 185.525 21.8359C185.24 21.6628 184.897 21.5762 184.495 21.5762C184.099 21.5762 183.759 21.6442 183.475 21.7803C183.19 21.9102 182.952 22.0926 182.76 22.3276C182.569 22.5627 182.42 22.8379 182.315 23.1533C182.21 23.4626 182.136 23.7996 182.092 24.1646V25.9644C182.167 26.4097 182.293 26.8179 182.473 27.189C182.652 27.5601 182.906 27.8569 183.233 28.0796C183.567 28.2961 183.994 28.4043 184.514 28.4043C184.916 28.4043 185.259 28.3177 185.543 28.1445C185.828 27.9714 186.06 27.7332 186.239 27.4302C186.425 27.1209 186.561 26.7653 186.647 26.3633C186.734 25.9613 186.777 25.5345 186.777 25.083ZM193.16 21.8916V33.8594H190.924V19.9619H192.984L193.16 21.8916ZM199.701 24.8882V25.083C199.701 25.8128 199.614 26.4901 199.441 27.1147C199.274 27.7332 199.023 28.2744 198.689 28.7383C198.362 29.196 197.957 29.5516 197.474 29.8052C196.992 30.0588 196.435 30.1855 195.804 30.1855C195.18 30.1855 194.632 30.0711 194.162 29.8423C193.698 29.6073 193.306 29.2764 192.984 28.8496C192.662 28.4229 192.403 27.9219 192.205 27.3467C192.013 26.7653 191.877 26.1283 191.796 25.4355V24.6841C191.877 23.9481 192.013 23.2801 192.205 22.6802C192.403 22.0802 192.662 21.5638 192.984 21.1309C193.306 20.6979 193.698 20.3639 194.162 20.1289C194.626 19.8939 195.167 19.7764 195.786 19.7764C196.417 19.7764 196.976 19.9001 197.465 20.1475C197.953 20.3887 198.365 20.735 198.699 21.1865C199.033 21.6318 199.283 22.1699 199.45 22.8008C199.617 23.4255 199.701 24.1213 199.701 24.8882ZM197.465 25.083V24.8882C197.465 24.4243 197.422 23.9945 197.335 23.5986C197.248 23.1966 197.112 22.8441 196.927 22.541C196.741 22.238 196.503 22.0029 196.212 21.8359C195.928 21.6628 195.585 21.5762 195.183 21.5762C194.787 21.5762 194.447 21.6442 194.162 21.7803C193.878 21.9102 193.639 22.0926 193.448 22.3276C193.256 22.5627 193.108 22.8379 193.002 23.1533C192.897 23.4626 192.823 23.7996 192.78 24.1646V25.9644C192.854 26.4097 192.981 26.8179 193.16 27.189C193.34 27.5601 193.593 27.8569 193.921 28.0796C194.255 28.2961 194.682 28.4043 195.201 28.4043C195.603 28.4043 195.946 28.3177 196.231 28.1445C196.515 27.9714 196.747 27.7332 196.927 27.4302C197.112 27.1209 197.248 26.7653 197.335 26.3633C197.422 25.9613 197.465 25.5345 197.465 25.083ZM203.996 15.75V30H201.751V15.75H203.996ZM210.871 30.1855C210.128 30.1855 209.457 30.0649 208.857 29.8237C208.264 29.5763 207.757 29.2331 207.336 28.7939C206.922 28.3548 206.603 27.8384 206.38 27.2446C206.158 26.6509 206.046 26.0107 206.046 25.3242V24.9531C206.046 24.1676 206.161 23.4564 206.39 22.8193C206.618 22.1823 206.937 21.638 207.345 21.1865C207.753 20.7288 208.236 20.3794 208.792 20.1382C209.349 19.897 209.952 19.7764 210.602 19.7764C211.319 19.7764 211.947 19.897 212.485 20.1382C213.023 20.3794 213.468 20.7196 213.821 21.1587C214.18 21.5916 214.445 22.1081 214.619 22.708C214.798 23.3079 214.888 23.9697 214.888 24.6934V25.6489H207.132V24.0439H212.68V23.8677C212.667 23.4657 212.587 23.0884 212.438 22.7358C212.296 22.3833 212.077 22.0988 211.78 21.8823C211.483 21.6659 211.087 21.5576 210.592 21.5576C210.221 21.5576 209.89 21.638 209.6 21.7988C209.315 21.9535 209.077 22.1792 208.885 22.4761C208.694 22.7729 208.545 23.1317 208.44 23.5522C208.341 23.9666 208.292 24.4336 208.292 24.9531V25.3242C208.292 25.7633 208.35 26.1715 208.468 26.5488C208.591 26.9199 208.771 27.2446 209.006 27.5229C209.241 27.8013 209.525 28.0208 209.859 28.1816C210.193 28.3363 210.574 28.4136 211 28.4136C211.539 28.4136 212.018 28.3053 212.438 28.0889C212.859 27.8724 213.224 27.5662 213.533 27.1704L214.711 28.3115C214.495 28.627 214.214 28.93 213.867 29.2207C213.521 29.5052 213.097 29.7371 212.596 29.9165C212.101 30.0959 211.526 30.1855 210.871 30.1855Z" fill="black"/>
</svg>
