<svg width="240" height="48" viewBox="0 0 240 48" fill="none" xmlns="http://www.w3.org/2000/svg">
<rect width="240" height="48" rx="8" fill="white"/>
<rect x="0.5" y="0.5" width="239" height="47" rx="7.5" stroke="black" stroke-opacity="0.08"/>
<path fill-rule="evenodd" clip-rule="evenodd" d="M42.02 24.2727C42.02 23.4218 41.9436 22.6036 41.8018 21.8182H30.5V26.46H36.9582C36.68 27.96 35.8345 29.2309 34.5636 30.0818V33.0927H38.4418C40.7109 31.0036 42.02 27.9273 42.02 24.2727Z" fill="#4285F4"/>
<path fill-rule="evenodd" clip-rule="evenodd" d="M30.5 36C33.74 36 36.4564 34.9255 38.4418 33.0927L34.5636 30.0818C33.4891 30.8018 32.1145 31.2273 30.5 31.2273C27.3745 31.2273 24.7291 29.1164 23.7855 26.28H19.7764V29.3891C21.7509 33.3109 25.8091 36 30.5 36Z" fill="#34A853"/>
<path fill-rule="evenodd" clip-rule="evenodd" d="M23.7855 26.28C23.5455 25.56 23.4091 24.7909 23.4091 24C23.4091 23.2091 23.5455 22.44 23.7855 21.72V18.6109H19.7764C18.9636 20.2309 18.5 22.0636 18.5 24C18.5 25.9364 18.9636 27.7691 19.7764 29.3891L23.7855 26.28Z" fill="#FBBC05"/>
<path fill-rule="evenodd" clip-rule="evenodd" d="M30.5 16.7727C32.2618 16.7727 33.8436 17.3782 35.0873 18.5673L38.5291 15.1255C36.4509 13.1891 33.7345 12 30.5 12C25.8091 12 21.7509 14.6891 19.7764 18.6109L23.7855 21.72C24.7291 18.8836 27.3745 16.7727 30.5 16.7727Z" fill="#EA4335"/>
<path d="M65.9795 26.521C65.9795 26.2427 65.9362 25.9953 65.8496 25.7788C65.7692 25.5623 65.6239 25.3644 65.4136 25.1851C65.2033 25.0057 64.9064 24.8325 64.5229 24.6655C64.1457 24.4924 63.6632 24.3161 63.0757 24.1367C62.4325 23.9388 61.8387 23.7192 61.2944 23.478C60.7563 23.2306 60.2863 22.9461 59.8843 22.6245C59.4823 22.2967 59.1699 21.9225 58.9473 21.502C58.7246 21.0752 58.6133 20.5835 58.6133 20.0269C58.6133 19.4764 58.7277 18.9754 58.9565 18.5239C59.1916 18.0724 59.5225 17.6828 59.9492 17.355C60.3822 17.021 60.8924 16.7643 61.48 16.585C62.0675 16.3994 62.717 16.3066 63.4282 16.3066C64.4302 16.3066 65.293 16.4922 66.0166 16.8633C66.7464 17.2344 67.3062 17.7323 67.6958 18.3569C68.0916 18.9816 68.2896 19.6712 68.2896 20.4258H65.9795C65.9795 19.9805 65.8836 19.5877 65.6919 19.2476C65.5063 18.9012 65.2218 18.6291 64.8384 18.4312C64.4611 18.2332 63.9818 18.1343 63.4004 18.1343C62.8499 18.1343 62.3923 18.2178 62.0273 18.3848C61.6624 18.5518 61.3903 18.7775 61.2109 19.062C61.0316 19.3465 60.9419 19.6681 60.9419 20.0269C60.9419 20.2804 61.0007 20.5124 61.1182 20.7227C61.2357 20.9268 61.415 21.1185 61.6562 21.2979C61.8975 21.471 62.2005 21.6349 62.5654 21.7896C62.9303 21.9442 63.3602 22.0926 63.855 22.2349C64.6034 22.4575 65.2559 22.7049 65.8125 22.9771C66.3691 23.243 66.833 23.5461 67.2041 23.8862C67.5752 24.2264 67.8535 24.613 68.0391 25.0459C68.2246 25.4727 68.3174 25.9582 68.3174 26.5024C68.3174 27.0715 68.203 27.5848 67.9741 28.0425C67.7453 28.494 67.4175 28.8805 66.9907 29.2021C66.5701 29.5176 66.063 29.7619 65.4692 29.9351C64.8817 30.1021 64.2261 30.1855 63.5024 30.1855C62.853 30.1855 62.2129 30.099 61.582 29.9258C60.9574 29.7526 60.3883 29.4897 59.875 29.1372C59.3617 28.7785 58.9535 28.3332 58.6504 27.8013C58.3473 27.2632 58.1958 26.6354 58.1958 25.918H60.5244C60.5244 26.3571 60.5986 26.7313 60.7471 27.0405C60.9017 27.3498 61.1151 27.6034 61.3872 27.8013C61.6593 27.993 61.9748 28.1353 62.3335 28.228C62.6984 28.3208 63.0881 28.3672 63.5024 28.3672C64.0467 28.3672 64.5013 28.2899 64.8662 28.1353C65.2373 27.9806 65.5156 27.7642 65.7012 27.4858C65.8867 27.2075 65.9795 26.8859 65.9795 26.521ZM72.5479 19.9619V30H70.3027V19.9619H72.5479ZM70.1543 17.3271C70.1543 16.987 70.2656 16.7056 70.4883 16.4829C70.7171 16.2541 71.0326 16.1396 71.4346 16.1396C71.8304 16.1396 72.1427 16.2541 72.3716 16.4829C72.6004 16.7056 72.7148 16.987 72.7148 17.3271C72.7148 17.6611 72.6004 17.9395 72.3716 18.1621C72.1427 18.3848 71.8304 18.4961 71.4346 18.4961C71.0326 18.4961 70.7171 18.3848 70.4883 18.1621C70.2656 17.9395 70.1543 17.6611 70.1543 17.3271ZM81.4263 19.9619H83.458V29.7217C83.458 30.6247 83.2663 31.3916 82.8828 32.0225C82.4993 32.6533 81.9644 33.1326 81.2778 33.4604C80.5913 33.7944 79.7965 33.9614 78.8936 33.9614C78.5101 33.9614 78.0833 33.9058 77.6133 33.7944C77.1494 33.6831 76.6979 33.5037 76.2588 33.2563C75.8258 33.0151 75.464 32.6966 75.1733 32.3008L76.2217 30.9834C76.5804 31.4102 76.9762 31.7225 77.4092 31.9204C77.8421 32.1183 78.2967 32.2173 78.7729 32.2173C79.2863 32.2173 79.7223 32.1214 80.0811 31.9297C80.446 31.7441 80.7274 31.4689 80.9253 31.104C81.1232 30.7391 81.2222 30.2938 81.2222 29.7681V22.2349L81.4263 19.9619ZM74.6074 25.0923V24.8975C74.6074 24.1367 74.7002 23.444 74.8857 22.8193C75.0713 22.1885 75.3372 21.6473 75.6836 21.1958C76.0299 20.7381 76.4505 20.3887 76.9453 20.1475C77.4401 19.9001 77.9998 19.7764 78.6245 19.7764C79.2739 19.7764 79.8275 19.8939 80.2852 20.1289C80.749 20.3639 81.1356 20.701 81.4448 21.1401C81.7541 21.5731 81.9953 22.0926 82.1685 22.6987C82.3478 23.2987 82.4808 23.9666 82.5674 24.7026V25.3242C82.487 26.0417 82.3509 26.6973 82.1592 27.291C81.9674 27.8848 81.7139 28.3981 81.3984 28.8311C81.083 29.264 80.6934 29.598 80.2295 29.833C79.7718 30.068 79.2306 30.1855 78.606 30.1855C77.9937 30.1855 77.4401 30.0588 76.9453 29.8052C76.4567 29.5516 76.0361 29.196 75.6836 28.7383C75.3372 28.2806 75.0713 27.7425 74.8857 27.124C74.7002 26.4993 74.6074 25.8221 74.6074 25.0923ZM76.8433 24.8975V25.0923C76.8433 25.55 76.8866 25.9767 76.9731 26.3726C77.0659 26.7684 77.2051 27.1178 77.3906 27.4209C77.5824 27.7178 77.8236 27.9528 78.1143 28.126C78.4111 28.293 78.7606 28.3765 79.1626 28.3765C79.6883 28.3765 80.1182 28.2651 80.4521 28.0425C80.7923 27.8198 81.0521 27.5199 81.2314 27.1426C81.417 26.7591 81.5469 26.3324 81.6211 25.8623V24.1831C81.584 23.8182 81.5067 23.478 81.3892 23.1626C81.2778 22.8472 81.1263 22.5719 80.9346 22.3369C80.7428 22.0957 80.5016 21.9102 80.2109 21.7803C79.9202 21.6442 79.577 21.5762 79.1812 21.5762C78.7791 21.5762 78.4297 21.6628 78.1328 21.8359C77.8359 22.0091 77.5916 22.2472 77.3999 22.5503C77.2144 22.8534 77.0752 23.2059 76.9824 23.6079C76.8896 24.0099 76.8433 24.4398 76.8433 24.8975ZM87.9946 22.105V30H85.7588V19.9619H87.8647L87.9946 22.105ZM87.5957 24.6099L86.8721 24.6006C86.8783 23.8893 86.9772 23.2368 87.1689 22.6431C87.3669 22.0493 87.639 21.5391 87.9854 21.1123C88.3379 20.6855 88.7585 20.3577 89.2471 20.1289C89.7357 19.8939 90.2799 19.7764 90.8799 19.7764C91.3623 19.7764 91.7983 19.8444 92.188 19.9805C92.5838 20.1104 92.9209 20.3237 93.1992 20.6206C93.4837 20.9175 93.7002 21.304 93.8486 21.7803C93.9971 22.2503 94.0713 22.8286 94.0713 23.5151V30H91.8262V23.5059C91.8262 23.0234 91.755 22.6431 91.6128 22.3647C91.4767 22.0802 91.2757 21.8792 91.0098 21.7617C90.75 21.638 90.4253 21.5762 90.0356 21.5762C89.6522 21.5762 89.3089 21.6566 89.0059 21.8174C88.7028 21.9782 88.4461 22.1978 88.2358 22.4761C88.0317 22.7544 87.874 23.076 87.7627 23.4409C87.6514 23.8058 87.5957 24.1955 87.5957 24.6099ZM103.479 19.9619V30H101.233V19.9619H103.479ZM101.085 17.3271C101.085 16.987 101.196 16.7056 101.419 16.4829C101.648 16.2541 101.963 16.1396 102.365 16.1396C102.761 16.1396 103.073 16.2541 103.302 16.4829C103.531 16.7056 103.646 16.987 103.646 17.3271C103.646 17.6611 103.531 17.9395 103.302 18.1621C103.073 18.3848 102.761 18.4961 102.365 18.4961C101.963 18.4961 101.648 18.3848 101.419 18.1621C101.196 17.9395 101.085 17.6611 101.085 17.3271ZM108.145 22.105V30H105.909V19.9619H108.015L108.145 22.105ZM107.746 24.6099L107.022 24.6006C107.029 23.8893 107.128 23.2368 107.319 22.6431C107.517 22.0493 107.789 21.5391 108.136 21.1123C108.488 20.6855 108.909 20.3577 109.397 20.1289C109.886 19.8939 110.43 19.7764 111.03 19.7764C111.513 19.7764 111.949 19.8444 112.338 19.9805C112.734 20.1104 113.071 20.3237 113.35 20.6206C113.634 20.9175 113.851 21.304 113.999 21.7803C114.147 22.2503 114.222 22.8286 114.222 23.5151V30H111.977V23.5059C111.977 23.0234 111.905 22.6431 111.763 22.3647C111.627 22.0802 111.426 21.8792 111.16 21.7617C110.9 21.638 110.576 21.5762 110.186 21.5762C109.803 21.5762 109.459 21.6566 109.156 21.8174C108.853 21.9782 108.597 22.1978 108.386 22.4761C108.182 22.7544 108.024 23.076 107.913 23.4409C107.802 23.8058 107.746 24.1955 107.746 24.6099ZM123.963 27.7734L126.282 19.9619H127.711L127.321 22.2998L124.983 30H123.703L123.963 27.7734ZM122.599 19.9619L124.408 27.8105L124.557 30H123.128L120.41 19.9619H122.599ZM129.882 27.7178L131.635 19.9619H133.815L131.106 30H129.678L129.882 27.7178ZM127.952 19.9619L130.244 27.6807L130.531 30H129.251L126.885 22.2905L126.496 19.9619H127.952ZM137.73 19.9619V30H135.485V19.9619H137.73ZM135.337 17.3271C135.337 16.987 135.448 16.7056 135.671 16.4829C135.9 16.2541 136.215 16.1396 136.617 16.1396C137.013 16.1396 137.325 16.2541 137.554 16.4829C137.783 16.7056 137.897 16.987 137.897 17.3271C137.897 17.6611 137.783 17.9395 137.554 18.1621C137.325 18.3848 137.013 18.4961 136.617 18.4961C136.215 18.4961 135.9 18.3848 135.671 18.1621C135.448 17.9395 135.337 17.6611 135.337 17.3271ZM144.781 19.9619V21.5947H139.122V19.9619H144.781ZM140.755 17.5034H142.991V27.2261C142.991 27.5353 143.034 27.7734 143.121 27.9404C143.213 28.1012 143.34 28.2095 143.501 28.2651C143.662 28.3208 143.85 28.3486 144.067 28.3486C144.222 28.3486 144.37 28.3394 144.512 28.3208C144.654 28.3022 144.769 28.2837 144.855 28.2651L144.865 29.9722C144.679 30.0278 144.463 30.0773 144.215 30.1206C143.974 30.1639 143.696 30.1855 143.38 30.1855C142.867 30.1855 142.412 30.0959 142.017 29.9165C141.621 29.731 141.312 29.431 141.089 29.0166C140.866 28.6022 140.755 28.0518 140.755 27.3652V17.5034ZM148.715 15.75V30H146.488V15.75H148.715ZM148.325 24.6099L147.602 24.6006C147.608 23.9079 147.704 23.2677 147.889 22.6802C148.081 22.0926 148.347 21.5824 148.687 21.1494C149.033 20.7103 149.448 20.3732 149.93 20.1382C150.413 19.897 150.948 19.7764 151.535 19.7764C152.03 19.7764 152.475 19.8444 152.871 19.9805C153.273 20.1165 153.619 20.3361 153.91 20.6392C154.201 20.936 154.42 21.3257 154.569 21.8081C154.723 22.2843 154.801 22.8657 154.801 23.5522V30H152.556V23.5337C152.556 23.0513 152.485 22.6678 152.342 22.3833C152.206 22.0988 152.005 21.8947 151.739 21.771C151.473 21.6411 151.149 21.5762 150.765 21.5762C150.363 21.5762 150.007 21.6566 149.698 21.8174C149.395 21.9782 149.142 22.1978 148.938 22.4761C148.733 22.7544 148.579 23.076 148.474 23.4409C148.375 23.8058 148.325 24.1955 148.325 24.6099ZM172.391 23.0977V28.2559C172.199 28.5094 171.899 28.7878 171.491 29.0908C171.089 29.3877 170.554 29.6444 169.886 29.8608C169.218 30.0773 168.386 30.1855 167.39 30.1855C166.543 30.1855 165.767 30.0433 165.062 29.7588C164.356 29.4681 163.747 29.0444 163.234 28.4878C162.727 27.9312 162.334 27.2539 162.056 26.4561C161.777 25.652 161.638 24.7367 161.638 23.71V22.7729C161.638 21.7524 161.765 20.8433 162.019 20.0454C162.278 19.2414 162.649 18.561 163.132 18.0044C163.614 17.4478 164.196 17.0272 164.876 16.7427C165.562 16.452 166.339 16.3066 167.205 16.3066C168.312 16.3066 169.227 16.4922 169.951 16.8633C170.681 17.2282 171.243 17.7354 171.639 18.3848C172.035 19.0342 172.285 19.7764 172.391 20.6113H170.108C170.034 20.1413 169.889 19.7207 169.672 19.3496C169.462 18.9785 169.159 18.6878 168.763 18.4775C168.374 18.2611 167.866 18.1528 167.242 18.1528C166.704 18.1528 166.23 18.2549 165.822 18.459C165.414 18.6631 165.074 18.9631 164.802 19.3589C164.536 19.7547 164.335 20.2371 164.199 20.8062C164.063 21.3752 163.995 22.0246 163.995 22.7544V23.71C163.995 24.4521 164.072 25.1108 164.227 25.686C164.387 26.2612 164.616 26.7467 164.913 27.1426C165.216 27.5384 165.584 27.8384 166.017 28.0425C166.45 28.2404 166.939 28.3394 167.483 28.3394C168.015 28.3394 168.451 28.2961 168.791 28.2095C169.131 28.1167 169.4 28.0085 169.598 27.8848C169.802 27.7549 169.96 27.6312 170.071 27.5137V24.8325H167.26V23.0977H172.391ZM174.32 25.0923V24.8789C174.32 24.1553 174.425 23.4842 174.636 22.8657C174.846 22.241 175.149 21.6999 175.545 21.2422C175.947 20.7783 176.436 20.4196 177.011 20.166C177.592 19.9062 178.248 19.7764 178.978 19.7764C179.714 19.7764 180.369 19.9062 180.944 20.166C181.526 20.4196 182.017 20.7783 182.419 21.2422C182.821 21.6999 183.128 22.241 183.338 22.8657C183.548 23.4842 183.653 24.1553 183.653 24.8789V25.0923C183.653 25.8159 183.548 26.487 183.338 27.1055C183.128 27.724 182.821 28.2651 182.419 28.729C182.017 29.1867 181.529 29.5454 180.954 29.8052C180.378 30.0588 179.726 30.1855 178.996 30.1855C178.26 30.1855 177.601 30.0588 177.02 29.8052C176.445 29.5454 175.956 29.1867 175.554 28.729C175.152 28.2651 174.846 27.724 174.636 27.1055C174.425 26.487 174.32 25.8159 174.32 25.0923ZM176.556 24.8789V25.0923C176.556 25.5438 176.603 25.9705 176.695 26.3726C176.788 26.7746 176.933 27.1271 177.131 27.4302C177.329 27.7332 177.583 27.9714 177.892 28.1445C178.201 28.3177 178.569 28.4043 178.996 28.4043C179.41 28.4043 179.769 28.3177 180.072 28.1445C180.382 27.9714 180.635 27.7332 180.833 27.4302C181.031 27.1271 181.176 26.7746 181.269 26.3726C181.368 25.9705 181.417 25.5438 181.417 25.0923V24.8789C181.417 24.4336 181.368 24.013 181.269 23.6172C181.176 23.2152 181.028 22.8595 180.824 22.5503C180.626 22.241 180.372 21.9998 180.063 21.8267C179.76 21.6473 179.398 21.5576 178.978 21.5576C178.557 21.5576 178.192 21.6473 177.883 21.8267C177.58 21.9998 177.329 22.241 177.131 22.5503C176.933 22.8595 176.788 23.2152 176.695 23.6172C176.603 24.013 176.556 24.4336 176.556 24.8789ZM185.101 25.0923V24.8789C185.101 24.1553 185.206 23.4842 185.416 22.8657C185.626 22.241 185.929 21.6999 186.325 21.2422C186.727 20.7783 187.216 20.4196 187.791 20.166C188.372 19.9062 189.028 19.7764 189.758 19.7764C190.494 19.7764 191.149 19.9062 191.725 20.166C192.306 20.4196 192.798 20.7783 193.2 21.2422C193.602 21.6999 193.908 22.241 194.118 22.8657C194.328 23.4842 194.434 24.1553 194.434 24.8789V25.0923C194.434 25.8159 194.328 26.487 194.118 27.1055C193.908 27.724 193.602 28.2651 193.2 28.729C192.798 29.1867 192.309 29.5454 191.734 29.8052C191.159 30.0588 190.506 30.1855 189.776 30.1855C189.04 30.1855 188.382 30.0588 187.8 29.8052C187.225 29.5454 186.736 29.1867 186.334 28.729C185.932 28.2651 185.626 27.724 185.416 27.1055C185.206 26.487 185.101 25.8159 185.101 25.0923ZM187.336 24.8789V25.0923C187.336 25.5438 187.383 25.9705 187.476 26.3726C187.568 26.7746 187.714 27.1271 187.912 27.4302C188.11 27.7332 188.363 27.9714 188.672 28.1445C188.982 28.3177 189.35 28.4043 189.776 28.4043C190.191 28.4043 190.549 28.3177 190.853 28.1445C191.162 27.9714 191.415 27.7332 191.613 27.4302C191.811 27.1271 191.957 26.7746 192.049 26.3726C192.148 25.9705 192.198 25.5438 192.198 25.0923V24.8789C192.198 24.4336 192.148 24.013 192.049 23.6172C191.957 23.2152 191.808 22.8595 191.604 22.5503C191.406 22.241 191.153 21.9998 190.843 21.8267C190.54 21.6473 190.178 21.5576 189.758 21.5576C189.337 21.5576 188.972 21.6473 188.663 21.8267C188.36 21.9998 188.11 22.241 187.912 22.5503C187.714 22.8595 187.568 23.2152 187.476 23.6172C187.383 24.013 187.336 24.4336 187.336 24.8789ZM202.737 19.9619H204.769V29.7217C204.769 30.6247 204.577 31.3916 204.193 32.0225C203.81 32.6533 203.275 33.1326 202.588 33.4604C201.902 33.7944 201.107 33.9614 200.204 33.9614C199.821 33.9614 199.394 33.9058 198.924 33.7944C198.46 33.6831 198.008 33.5037 197.569 33.2563C197.136 33.0151 196.775 32.6966 196.484 32.3008L197.532 30.9834C197.891 31.4102 198.287 31.7225 198.72 31.9204C199.153 32.1183 199.607 32.2173 200.083 32.2173C200.597 32.2173 201.033 32.1214 201.392 31.9297C201.757 31.7441 202.038 31.4689 202.236 31.104C202.434 30.7391 202.533 30.2938 202.533 29.7681V22.2349L202.737 19.9619ZM195.918 25.0923V24.8975C195.918 24.1367 196.011 23.444 196.196 22.8193C196.382 22.1885 196.648 21.6473 196.994 21.1958C197.34 20.7381 197.761 20.3887 198.256 20.1475C198.751 19.9001 199.31 19.7764 199.935 19.7764C200.584 19.7764 201.138 19.8939 201.596 20.1289C202.06 20.3639 202.446 20.701 202.755 21.1401C203.065 21.5731 203.306 22.0926 203.479 22.6987C203.658 23.2987 203.791 23.9666 203.878 24.7026V25.3242C203.798 26.0417 203.661 26.6973 203.47 27.291C203.278 27.8848 203.024 28.3981 202.709 28.8311C202.394 29.264 202.004 29.598 201.54 29.833C201.082 30.068 200.541 30.1855 199.917 30.1855C199.304 30.1855 198.751 30.0588 198.256 29.8052C197.767 29.5516 197.347 29.196 196.994 28.7383C196.648 28.2806 196.382 27.7425 196.196 27.124C196.011 26.4993 195.918 25.8221 195.918 25.0923ZM198.154 24.8975V25.0923C198.154 25.55 198.197 25.9767 198.284 26.3726C198.376 26.7684 198.516 27.1178 198.701 27.4209C198.893 27.7178 199.134 27.9528 199.425 28.126C199.722 28.293 200.071 28.3765 200.473 28.3765C200.999 28.3765 201.429 28.2651 201.763 28.0425C202.103 27.8198 202.363 27.5199 202.542 27.1426C202.728 26.7591 202.857 26.3324 202.932 25.8623V24.1831C202.895 23.8182 202.817 23.478 202.7 23.1626C202.588 22.8472 202.437 22.5719 202.245 22.3369C202.053 22.0957 201.812 21.9102 201.521 21.7803C201.231 21.6442 200.888 21.5762 200.492 21.5762C200.09 21.5762 199.74 21.6628 199.443 21.8359C199.146 22.0091 198.902 22.2472 198.71 22.5503C198.525 22.8534 198.386 23.2059 198.293 23.6079C198.2 24.0099 198.154 24.4398 198.154 24.8975ZM209.481 15.75V30H207.236V15.75H209.481ZM216.356 30.1855C215.614 30.1855 214.943 30.0649 214.343 29.8237C213.749 29.5763 213.242 29.2331 212.821 28.7939C212.407 28.3548 212.088 27.8384 211.866 27.2446C211.643 26.6509 211.532 26.0107 211.532 25.3242V24.9531C211.532 24.1676 211.646 23.4564 211.875 22.8193C212.104 22.1823 212.422 21.638 212.831 21.1865C213.239 20.7288 213.721 20.3794 214.278 20.1382C214.834 19.897 215.438 19.7764 216.087 19.7764C216.804 19.7764 217.432 19.897 217.97 20.1382C218.508 20.3794 218.954 20.7196 219.306 21.1587C219.665 21.5916 219.931 22.1081 220.104 22.708C220.283 23.3079 220.373 23.9697 220.373 24.6934V25.6489H212.617V24.0439H218.165V23.8677C218.153 23.4657 218.072 23.0884 217.924 22.7358C217.782 22.3833 217.562 22.0988 217.265 21.8823C216.968 21.6659 216.572 21.5576 216.078 21.5576C215.707 21.5576 215.376 21.638 215.085 21.7988C214.8 21.9535 214.562 22.1792 214.371 22.4761C214.179 22.7729 214.03 23.1317 213.925 23.5522C213.826 23.9666 213.777 24.4336 213.777 24.9531V25.3242C213.777 25.7633 213.836 26.1715 213.953 26.5488C214.077 26.9199 214.256 27.2446 214.491 27.5229C214.726 27.8013 215.011 28.0208 215.345 28.1816C215.679 28.3363 216.059 28.4136 216.486 28.4136C217.024 28.4136 217.503 28.3053 217.924 28.0889C218.344 27.8724 218.709 27.5662 219.019 27.1704L220.197 28.3115C219.98 28.627 219.699 28.93 219.353 29.2207C219.006 29.5052 218.583 29.7371 218.082 29.9165C217.587 30.0959 217.012 30.1855 216.356 30.1855Z" fill="#333333" fill-opacity="0.63"/>
</svg>
