<svg width="244" height="52" viewBox="0 0 244 52" fill="none" xmlns="http://www.w3.org/2000/svg">
<g filter="url(#filter0_dd_335_918)">
<rect x="2" y="1" width="240" height="48" rx="8" fill="white" shape-rendering="crispEdges"/>
<path fill-rule="evenodd" clip-rule="evenodd" d="M40.52 25.2727C40.52 24.4218 40.4436 23.6036 40.3018 22.8182H29V27.46H35.4582C35.18 28.96 34.3345 30.2309 33.0636 31.0818V34.0927H36.9418C39.2109 32.0036 40.52 28.9273 40.52 25.2727Z" fill="#4285F4"/>
<path fill-rule="evenodd" clip-rule="evenodd" d="M29 37C32.24 37 34.9564 35.9255 36.9418 34.0927L33.0636 31.0818C31.9891 31.8018 30.6145 32.2273 29 32.2273C25.8745 32.2273 23.2291 30.1164 22.2855 27.28H18.2764V30.3891C20.2509 34.3109 24.3091 37 29 37Z" fill="#34A853"/>
<path fill-rule="evenodd" clip-rule="evenodd" d="M22.2855 27.28C22.0455 26.56 21.9091 25.7909 21.9091 25C21.9091 24.2091 22.0455 23.44 22.2855 22.72V19.6109H18.2764C17.4636 21.2309 17 23.0636 17 25C17 26.9364 17.4636 28.7691 18.2764 30.3891L22.2855 27.28Z" fill="#FBBC05"/>
<path fill-rule="evenodd" clip-rule="evenodd" d="M29 17.7727C30.7618 17.7727 32.3436 18.3782 33.5873 19.5673L37.0291 16.1255C34.9509 14.1891 32.2345 13 29 13C24.3091 13 20.2509 15.6891 18.2764 19.6109L22.2855 22.72C23.2291 19.8836 25.8745 17.7727 29 17.7727Z" fill="#EA4335"/>
<path d="M71.4795 27.521C71.4795 27.2427 71.4362 26.9953 71.3496 26.7788C71.2692 26.5623 71.1239 26.3644 70.9136 26.1851C70.7033 26.0057 70.4064 25.8325 70.0229 25.6655C69.6457 25.4924 69.1632 25.3161 68.5757 25.1367C67.9325 24.9388 67.3387 24.7192 66.7944 24.478C66.2563 24.2306 65.7863 23.9461 65.3843 23.6245C64.9823 23.2967 64.6699 22.9225 64.4473 22.502C64.2246 22.0752 64.1133 21.5835 64.1133 21.0269C64.1133 20.4764 64.2277 19.9754 64.4565 19.5239C64.6916 19.0724 65.0225 18.6828 65.4492 18.355C65.8822 18.021 66.3924 17.7643 66.98 17.585C67.5675 17.3994 68.217 17.3066 68.9282 17.3066C69.9302 17.3066 70.793 17.4922 71.5166 17.8633C72.2464 18.2344 72.8062 18.7323 73.1958 19.3569C73.5916 19.9816 73.7896 20.6712 73.7896 21.4258H71.4795C71.4795 20.9805 71.3836 20.5877 71.1919 20.2476C71.0063 19.9012 70.7218 19.6291 70.3384 19.4312C69.9611 19.2332 69.4818 19.1343 68.9004 19.1343C68.3499 19.1343 67.8923 19.2178 67.5273 19.3848C67.1624 19.5518 66.8903 19.7775 66.7109 20.062C66.5316 20.3465 66.4419 20.6681 66.4419 21.0269C66.4419 21.2804 66.5007 21.5124 66.6182 21.7227C66.7357 21.9268 66.915 22.1185 67.1562 22.2979C67.3975 22.471 67.7005 22.6349 68.0654 22.7896C68.4303 22.9442 68.8602 23.0926 69.355 23.2349C70.1034 23.4575 70.7559 23.7049 71.3125 23.9771C71.8691 24.243 72.333 24.5461 72.7041 24.8862C73.0752 25.2264 73.3535 25.613 73.5391 26.0459C73.7246 26.4727 73.8174 26.9582 73.8174 27.5024C73.8174 28.0715 73.703 28.5848 73.4741 29.0425C73.2453 29.494 72.9175 29.8805 72.4907 30.2021C72.0701 30.5176 71.563 30.7619 70.9692 30.9351C70.3817 31.1021 69.7261 31.1855 69.0024 31.1855C68.353 31.1855 67.7129 31.099 67.082 30.9258C66.4574 30.7526 65.8883 30.4897 65.375 30.1372C64.8617 29.7785 64.4535 29.3332 64.1504 28.8013C63.8473 28.2632 63.6958 27.6354 63.6958 26.918H66.0244C66.0244 27.3571 66.0986 27.7313 66.2471 28.0405C66.4017 28.3498 66.6151 28.6034 66.8872 28.8013C67.1593 28.993 67.4748 29.1353 67.8335 29.228C68.1984 29.3208 68.5881 29.3672 69.0024 29.3672C69.5467 29.3672 70.0013 29.2899 70.3662 29.1353C70.7373 28.9806 71.0156 28.7642 71.2012 28.4858C71.3867 28.2075 71.4795 27.8859 71.4795 27.521ZM78.0479 20.9619V31H75.8027V20.9619H78.0479ZM75.6543 18.3271C75.6543 17.987 75.7656 17.7056 75.9883 17.4829C76.2171 17.2541 76.5326 17.1396 76.9346 17.1396C77.3304 17.1396 77.6427 17.2541 77.8716 17.4829C78.1004 17.7056 78.2148 17.987 78.2148 18.3271C78.2148 18.6611 78.1004 18.9395 77.8716 19.1621C77.6427 19.3848 77.3304 19.4961 76.9346 19.4961C76.5326 19.4961 76.2171 19.3848 75.9883 19.1621C75.7656 18.9395 75.6543 18.6611 75.6543 18.3271ZM86.9263 20.9619H88.958V30.7217C88.958 31.6247 88.7663 32.3916 88.3828 33.0225C87.9993 33.6533 87.4644 34.1326 86.7778 34.4604C86.0913 34.7944 85.2965 34.9614 84.3936 34.9614C84.0101 34.9614 83.5833 34.9058 83.1133 34.7944C82.6494 34.6831 82.1979 34.5037 81.7588 34.2563C81.3258 34.0151 80.964 33.6966 80.6733 33.3008L81.7217 31.9834C82.0804 32.4102 82.4762 32.7225 82.9092 32.9204C83.3421 33.1183 83.7967 33.2173 84.2729 33.2173C84.7863 33.2173 85.2223 33.1214 85.5811 32.9297C85.946 32.7441 86.2274 32.4689 86.4253 32.104C86.6232 31.7391 86.7222 31.2938 86.7222 30.7681V23.2349L86.9263 20.9619ZM80.1074 26.0923V25.8975C80.1074 25.1367 80.2002 24.444 80.3857 23.8193C80.5713 23.1885 80.8372 22.6473 81.1836 22.1958C81.5299 21.7381 81.9505 21.3887 82.4453 21.1475C82.9401 20.9001 83.4998 20.7764 84.1245 20.7764C84.7739 20.7764 85.3275 20.8939 85.7852 21.1289C86.249 21.3639 86.6356 21.701 86.9448 22.1401C87.2541 22.5731 87.4953 23.0926 87.6685 23.6987C87.8478 24.2987 87.9808 24.9666 88.0674 25.7026V26.3242C87.987 27.0417 87.8509 27.6973 87.6592 28.291C87.4674 28.8848 87.2139 29.3981 86.8984 29.8311C86.583 30.264 86.1934 30.598 85.7295 30.833C85.2718 31.068 84.7306 31.1855 84.106 31.1855C83.4937 31.1855 82.9401 31.0588 82.4453 30.8052C81.9567 30.5516 81.5361 30.196 81.1836 29.7383C80.8372 29.2806 80.5713 28.7425 80.3857 28.124C80.2002 27.4993 80.1074 26.8221 80.1074 26.0923ZM82.3433 25.8975V26.0923C82.3433 26.55 82.3866 26.9767 82.4731 27.3726C82.5659 27.7684 82.7051 28.1178 82.8906 28.4209C83.0824 28.7178 83.3236 28.9528 83.6143 29.126C83.9111 29.293 84.2606 29.3765 84.6626 29.3765C85.1883 29.3765 85.6182 29.2651 85.9521 29.0425C86.2923 28.8198 86.5521 28.5199 86.7314 28.1426C86.917 27.7591 87.0469 27.3324 87.1211 26.8623V25.1831C87.084 24.8182 87.0067 24.478 86.8892 24.1626C86.7778 23.8472 86.6263 23.5719 86.4346 23.3369C86.2428 23.0957 86.0016 22.9102 85.7109 22.7803C85.4202 22.6442 85.077 22.5762 84.6812 22.5762C84.2791 22.5762 83.9297 22.6628 83.6328 22.8359C83.3359 23.0091 83.0916 23.2472 82.8999 23.5503C82.7144 23.8534 82.5752 24.2059 82.4824 24.6079C82.3896 25.0099 82.3433 25.4398 82.3433 25.8975ZM93.4946 23.105V31H91.2588V20.9619H93.3647L93.4946 23.105ZM93.0957 25.6099L92.3721 25.6006C92.3783 24.8893 92.4772 24.2368 92.6689 23.6431C92.8669 23.0493 93.139 22.5391 93.4854 22.1123C93.8379 21.6855 94.2585 21.3577 94.7471 21.1289C95.2357 20.8939 95.7799 20.7764 96.3799 20.7764C96.8623 20.7764 97.2983 20.8444 97.688 20.9805C98.0838 21.1104 98.4209 21.3237 98.6992 21.6206C98.9837 21.9175 99.2002 22.304 99.3486 22.7803C99.4971 23.2503 99.5713 23.8286 99.5713 24.5151V31H97.3262V24.5059C97.3262 24.0234 97.255 23.6431 97.1128 23.3647C96.9767 23.0802 96.7757 22.8792 96.5098 22.7617C96.25 22.638 95.9253 22.5762 95.5356 22.5762C95.1522 22.5762 94.8089 22.6566 94.5059 22.8174C94.2028 22.9782 93.9461 23.1978 93.7358 23.4761C93.5317 23.7544 93.374 24.076 93.2627 24.4409C93.1514 24.8058 93.0957 25.1955 93.0957 25.6099ZM108.979 20.9619V31H106.733V20.9619H108.979ZM106.585 18.3271C106.585 17.987 106.696 17.7056 106.919 17.4829C107.148 17.2541 107.463 17.1396 107.865 17.1396C108.261 17.1396 108.573 17.2541 108.802 17.4829C109.031 17.7056 109.146 17.987 109.146 18.3271C109.146 18.6611 109.031 18.9395 108.802 19.1621C108.573 19.3848 108.261 19.4961 107.865 19.4961C107.463 19.4961 107.148 19.3848 106.919 19.1621C106.696 18.9395 106.585 18.6611 106.585 18.3271ZM113.645 23.105V31H111.409V20.9619H113.515L113.645 23.105ZM113.246 25.6099L112.522 25.6006C112.529 24.8893 112.628 24.2368 112.819 23.6431C113.017 23.0493 113.289 22.5391 113.636 22.1123C113.988 21.6855 114.409 21.3577 114.897 21.1289C115.386 20.8939 115.93 20.7764 116.53 20.7764C117.013 20.7764 117.449 20.8444 117.838 20.9805C118.234 21.1104 118.571 21.3237 118.85 21.6206C119.134 21.9175 119.351 22.304 119.499 22.7803C119.647 23.2503 119.722 23.8286 119.722 24.5151V31H117.477V24.5059C117.477 24.0234 117.405 23.6431 117.263 23.3647C117.127 23.0802 116.926 22.8792 116.66 22.7617C116.4 22.638 116.076 22.5762 115.686 22.5762C115.303 22.5762 114.959 22.6566 114.656 22.8174C114.353 22.9782 114.097 23.1978 113.886 23.4761C113.682 23.7544 113.524 24.076 113.413 24.4409C113.302 24.8058 113.246 25.1955 113.246 25.6099ZM129.463 28.7734L131.782 20.9619H133.211L132.821 23.2998L130.483 31H129.203L129.463 28.7734ZM128.099 20.9619L129.908 28.8105L130.057 31H128.628L125.91 20.9619H128.099ZM135.382 28.7178L137.135 20.9619H139.315L136.606 31H135.178L135.382 28.7178ZM133.452 20.9619L135.744 28.6807L136.031 31H134.751L132.385 23.2905L131.996 20.9619H133.452ZM143.23 20.9619V31H140.985V20.9619H143.23ZM140.837 18.3271C140.837 17.987 140.948 17.7056 141.171 17.4829C141.4 17.2541 141.715 17.1396 142.117 17.1396C142.513 17.1396 142.825 17.2541 143.054 17.4829C143.283 17.7056 143.397 17.987 143.397 18.3271C143.397 18.6611 143.283 18.9395 143.054 19.1621C142.825 19.3848 142.513 19.4961 142.117 19.4961C141.715 19.4961 141.4 19.3848 141.171 19.1621C140.948 18.9395 140.837 18.6611 140.837 18.3271ZM150.281 20.9619V22.5947H144.622V20.9619H150.281ZM146.255 18.5034H148.491V28.2261C148.491 28.5353 148.534 28.7734 148.621 28.9404C148.713 29.1012 148.84 29.2095 149.001 29.2651C149.162 29.3208 149.35 29.3486 149.567 29.3486C149.722 29.3486 149.87 29.3394 150.012 29.3208C150.154 29.3022 150.269 29.2837 150.355 29.2651L150.365 30.9722C150.179 31.0278 149.963 31.0773 149.715 31.1206C149.474 31.1639 149.196 31.1855 148.88 31.1855C148.367 31.1855 147.912 31.0959 147.517 30.9165C147.121 30.731 146.812 30.431 146.589 30.0166C146.366 29.6022 146.255 29.0518 146.255 28.3652V18.5034ZM154.215 16.75V31H151.988V16.75H154.215ZM153.825 25.6099L153.102 25.6006C153.108 24.9079 153.204 24.2677 153.389 23.6802C153.581 23.0926 153.847 22.5824 154.187 22.1494C154.533 21.7103 154.948 21.3732 155.43 21.1382C155.913 20.897 156.448 20.7764 157.035 20.7764C157.53 20.7764 157.975 20.8444 158.371 20.9805C158.773 21.1165 159.119 21.3361 159.41 21.6392C159.701 21.936 159.92 22.3257 160.069 22.8081C160.223 23.2843 160.301 23.8657 160.301 24.5522V31H158.056V24.5337C158.056 24.0513 157.985 23.6678 157.842 23.3833C157.706 23.0988 157.505 22.8947 157.239 22.771C156.973 22.6411 156.649 22.5762 156.265 22.5762C155.863 22.5762 155.507 22.6566 155.198 22.8174C154.895 22.9782 154.642 23.1978 154.438 23.4761C154.233 23.7544 154.079 24.076 153.974 24.4409C153.875 24.8058 153.825 25.1955 153.825 25.6099ZM177.891 24.0977V29.2559C177.699 29.5094 177.399 29.7878 176.991 30.0908C176.589 30.3877 176.054 30.6444 175.386 30.8608C174.718 31.0773 173.886 31.1855 172.89 31.1855C172.043 31.1855 171.267 31.0433 170.562 30.7588C169.856 30.4681 169.247 30.0444 168.734 29.4878C168.227 28.9312 167.834 28.2539 167.556 27.4561C167.277 26.652 167.138 25.7367 167.138 24.71V23.7729C167.138 22.7524 167.265 21.8433 167.519 21.0454C167.778 20.2414 168.149 19.561 168.632 19.0044C169.114 18.4478 169.696 18.0272 170.376 17.7427C171.062 17.452 171.839 17.3066 172.705 17.3066C173.812 17.3066 174.727 17.4922 175.451 17.8633C176.181 18.2282 176.743 18.7354 177.139 19.3848C177.535 20.0342 177.785 20.7764 177.891 21.6113H175.608C175.534 21.1413 175.389 20.7207 175.172 20.3496C174.962 19.9785 174.659 19.6878 174.263 19.4775C173.874 19.2611 173.366 19.1528 172.742 19.1528C172.204 19.1528 171.73 19.2549 171.322 19.459C170.914 19.6631 170.574 19.9631 170.302 20.3589C170.036 20.7547 169.835 21.2371 169.699 21.8062C169.563 22.3752 169.495 23.0246 169.495 23.7544V24.71C169.495 25.4521 169.572 26.1108 169.727 26.686C169.887 27.2612 170.116 27.7467 170.413 28.1426C170.716 28.5384 171.084 28.8384 171.517 29.0425C171.95 29.2404 172.439 29.3394 172.983 29.3394C173.515 29.3394 173.951 29.2961 174.291 29.2095C174.631 29.1167 174.9 29.0085 175.098 28.8848C175.302 28.7549 175.46 28.6312 175.571 28.5137V25.8325H172.76V24.0977H177.891ZM179.82 26.0923V25.8789C179.82 25.1553 179.925 24.4842 180.136 23.8657C180.346 23.241 180.649 22.6999 181.045 22.2422C181.447 21.7783 181.936 21.4196 182.511 21.166C183.092 20.9062 183.748 20.7764 184.478 20.7764C185.214 20.7764 185.869 20.9062 186.444 21.166C187.026 21.4196 187.517 21.7783 187.919 22.2422C188.321 22.6999 188.628 23.241 188.838 23.8657C189.048 24.4842 189.153 25.1553 189.153 25.8789V26.0923C189.153 26.8159 189.048 27.487 188.838 28.1055C188.628 28.724 188.321 29.2651 187.919 29.729C187.517 30.1867 187.029 30.5454 186.454 30.8052C185.878 31.0588 185.226 31.1855 184.496 31.1855C183.76 31.1855 183.101 31.0588 182.52 30.8052C181.945 30.5454 181.456 30.1867 181.054 29.729C180.652 29.2651 180.346 28.724 180.136 28.1055C179.925 27.487 179.82 26.8159 179.82 26.0923ZM182.056 25.8789V26.0923C182.056 26.5438 182.103 26.9705 182.195 27.3726C182.288 27.7746 182.433 28.1271 182.631 28.4302C182.829 28.7332 183.083 28.9714 183.392 29.1445C183.701 29.3177 184.069 29.4043 184.496 29.4043C184.91 29.4043 185.269 29.3177 185.572 29.1445C185.882 28.9714 186.135 28.7332 186.333 28.4302C186.531 28.1271 186.676 27.7746 186.769 27.3726C186.868 26.9705 186.917 26.5438 186.917 26.0923V25.8789C186.917 25.4336 186.868 25.013 186.769 24.6172C186.676 24.2152 186.528 23.8595 186.324 23.5503C186.126 23.241 185.872 22.9998 185.563 22.8267C185.26 22.6473 184.898 22.5576 184.478 22.5576C184.057 22.5576 183.692 22.6473 183.383 22.8267C183.08 22.9998 182.829 23.241 182.631 23.5503C182.433 23.8595 182.288 24.2152 182.195 24.6172C182.103 25.013 182.056 25.4336 182.056 25.8789ZM190.601 26.0923V25.8789C190.601 25.1553 190.706 24.4842 190.916 23.8657C191.126 23.241 191.429 22.6999 191.825 22.2422C192.227 21.7783 192.716 21.4196 193.291 21.166C193.872 20.9062 194.528 20.7764 195.258 20.7764C195.994 20.7764 196.649 20.9062 197.225 21.166C197.806 21.4196 198.298 21.7783 198.7 22.2422C199.102 22.6999 199.408 23.241 199.618 23.8657C199.828 24.4842 199.934 25.1553 199.934 25.8789V26.0923C199.934 26.8159 199.828 27.487 199.618 28.1055C199.408 28.724 199.102 29.2651 198.7 29.729C198.298 30.1867 197.809 30.5454 197.234 30.8052C196.659 31.0588 196.006 31.1855 195.276 31.1855C194.54 31.1855 193.882 31.0588 193.3 30.8052C192.725 30.5454 192.236 30.1867 191.834 29.729C191.432 29.2651 191.126 28.724 190.916 28.1055C190.706 27.487 190.601 26.8159 190.601 26.0923ZM192.836 25.8789V26.0923C192.836 26.5438 192.883 26.9705 192.976 27.3726C193.068 27.7746 193.214 28.1271 193.412 28.4302C193.61 28.7332 193.863 28.9714 194.172 29.1445C194.482 29.3177 194.85 29.4043 195.276 29.4043C195.691 29.4043 196.049 29.3177 196.353 29.1445C196.662 28.9714 196.915 28.7332 197.113 28.4302C197.311 28.1271 197.457 27.7746 197.549 27.3726C197.648 26.9705 197.698 26.5438 197.698 26.0923V25.8789C197.698 25.4336 197.648 25.013 197.549 24.6172C197.457 24.2152 197.308 23.8595 197.104 23.5503C196.906 23.241 196.653 22.9998 196.343 22.8267C196.04 22.6473 195.678 22.5576 195.258 22.5576C194.837 22.5576 194.472 22.6473 194.163 22.8267C193.86 22.9998 193.61 23.241 193.412 23.5503C193.214 23.8595 193.068 24.2152 192.976 24.6172C192.883 25.013 192.836 25.4336 192.836 25.8789ZM208.237 20.9619H210.269V30.7217C210.269 31.6247 210.077 32.3916 209.693 33.0225C209.31 33.6533 208.775 34.1326 208.088 34.4604C207.402 34.7944 206.607 34.9614 205.704 34.9614C205.321 34.9614 204.894 34.9058 204.424 34.7944C203.96 34.6831 203.508 34.5037 203.069 34.2563C202.636 34.0151 202.275 33.6966 201.984 33.3008L203.032 31.9834C203.391 32.4102 203.787 32.7225 204.22 32.9204C204.653 33.1183 205.107 33.2173 205.583 33.2173C206.097 33.2173 206.533 33.1214 206.892 32.9297C207.257 32.7441 207.538 32.4689 207.736 32.104C207.934 31.7391 208.033 31.2938 208.033 30.7681V23.2349L208.237 20.9619ZM201.418 26.0923V25.8975C201.418 25.1367 201.511 24.444 201.696 23.8193C201.882 23.1885 202.148 22.6473 202.494 22.1958C202.84 21.7381 203.261 21.3887 203.756 21.1475C204.251 20.9001 204.81 20.7764 205.435 20.7764C206.084 20.7764 206.638 20.8939 207.096 21.1289C207.56 21.3639 207.946 21.701 208.255 22.1401C208.565 22.5731 208.806 23.0926 208.979 23.6987C209.158 24.2987 209.291 24.9666 209.378 25.7026V26.3242C209.298 27.0417 209.161 27.6973 208.97 28.291C208.778 28.8848 208.524 29.3981 208.209 29.8311C207.894 30.264 207.504 30.598 207.04 30.833C206.582 31.068 206.041 31.1855 205.417 31.1855C204.804 31.1855 204.251 31.0588 203.756 30.8052C203.267 30.5516 202.847 30.196 202.494 29.7383C202.148 29.2806 201.882 28.7425 201.696 28.124C201.511 27.4993 201.418 26.8221 201.418 26.0923ZM203.654 25.8975V26.0923C203.654 26.55 203.697 26.9767 203.784 27.3726C203.876 27.7684 204.016 28.1178 204.201 28.4209C204.393 28.7178 204.634 28.9528 204.925 29.126C205.222 29.293 205.571 29.3765 205.973 29.3765C206.499 29.3765 206.929 29.2651 207.263 29.0425C207.603 28.8198 207.863 28.5199 208.042 28.1426C208.228 27.7591 208.357 27.3324 208.432 26.8623V25.1831C208.395 24.8182 208.317 24.478 208.2 24.1626C208.088 23.8472 207.937 23.5719 207.745 23.3369C207.553 23.0957 207.312 22.9102 207.021 22.7803C206.731 22.6442 206.388 22.5762 205.992 22.5762C205.59 22.5762 205.24 22.6628 204.943 22.8359C204.646 23.0091 204.402 23.2472 204.21 23.5503C204.025 23.8534 203.886 24.2059 203.793 24.6079C203.7 25.0099 203.654 25.4398 203.654 25.8975ZM214.981 16.75V31H212.736V16.75H214.981ZM221.856 31.1855C221.114 31.1855 220.443 31.0649 219.843 30.8237C219.249 30.5763 218.742 30.2331 218.321 29.7939C217.907 29.3548 217.588 28.8384 217.366 28.2446C217.143 27.6509 217.032 27.0107 217.032 26.3242V25.9531C217.032 25.1676 217.146 24.4564 217.375 23.8193C217.604 23.1823 217.922 22.638 218.331 22.1865C218.739 21.7288 219.221 21.3794 219.778 21.1382C220.334 20.897 220.938 20.7764 221.587 20.7764C222.304 20.7764 222.932 20.897 223.47 21.1382C224.008 21.3794 224.454 21.7196 224.806 22.1587C225.165 22.5916 225.431 23.1081 225.604 23.708C225.783 24.3079 225.873 24.9697 225.873 25.6934V26.6489H218.117V25.0439H223.665V24.8677C223.653 24.4657 223.572 24.0884 223.424 23.7358C223.282 23.3833 223.062 23.0988 222.765 22.8823C222.468 22.6659 222.072 22.5576 221.578 22.5576C221.207 22.5576 220.876 22.638 220.585 22.7988C220.3 22.9535 220.062 23.1792 219.871 23.4761C219.679 23.7729 219.53 24.1317 219.425 24.5522C219.326 24.9666 219.277 25.4336 219.277 25.9531V26.3242C219.277 26.7633 219.336 27.1715 219.453 27.5488C219.577 27.9199 219.756 28.2446 219.991 28.5229C220.226 28.8013 220.511 29.0208 220.845 29.1816C221.179 29.3363 221.559 29.4136 221.986 29.4136C222.524 29.4136 223.003 29.3053 223.424 29.0889C223.844 28.8724 224.209 28.5662 224.519 28.1704L225.697 29.3115C225.48 29.627 225.199 29.93 224.853 30.2207C224.506 30.5052 224.083 30.7371 223.582 30.9165C223.087 31.0959 222.512 31.1855 221.856 31.1855Z" fill="black" fill-opacity="0.54"/>
</g>
<defs>
<filter id="filter0_dd_335_918" x="0" y="0" width="244" height="52" filterUnits="userSpaceOnUse" color-interpolation-filters="sRGB">
<feFlood flood-opacity="0" result="BackgroundImageFix"/>
<feColorMatrix in="SourceAlpha" type="matrix" values="0 0 0 0 0 0 0 0 0 0 0 0 0 0 0 0 0 0 127 0" result="hardAlpha"/>
<feOffset dy="1"/>
<feGaussianBlur stdDeviation="1"/>
<feColorMatrix type="matrix" values="0 0 0 0 0 0 0 0 0 0 0 0 0 0 0 0 0 0 0.25 0"/>
<feBlend mode="normal" in2="BackgroundImageFix" result="effect1_dropShadow_335_918"/>
<feColorMatrix in="SourceAlpha" type="matrix" values="0 0 0 0 0 0 0 0 0 0 0 0 0 0 0 0 0 0 127 0" result="hardAlpha"/>
<feOffset/>
<feComposite in2="hardAlpha" operator="out"/>
<feColorMatrix type="matrix" values="0 0 0 0 0 0 0 0 0 0 0 0 0 0 0 0 0 0 0.08 0"/>
<feBlend mode="normal" in2="effect1_dropShadow_335_918" result="effect2_dropShadow_335_918"/>
<feBlend mode="normal" in="SourceGraphic" in2="effect2_dropShadow_335_918" result="shape"/>
</filter>
</defs>
</svg>
