<svg width="240" height="48" viewBox="0 0 240 48" fill="none" xmlns="http://www.w3.org/2000/svg">
<rect width="240" height="48" rx="8" fill="#FEE500"/>
<path opacity="0.902" fill-rule="evenodd" clip-rule="evenodd" d="M34 12C27.72 12 22 17.3801 22 21.9317C22 25.3422 24.0773 28.3505 27.2413 30.1382L25.9107 35.3477C25.792 35.8096 26.284 36.1762 26.6613 35.9104L32.4973 31.7823C32.9893 31.8335 33.4907 31.8633 34 31.8633C40.6267 31.8633 46 27.4169 46 21.9317C46 17.3801 40.6267 12 34 12Z" fill="black"/>
<path d="M69.4795 26.521C69.4795 26.2427 69.4362 25.9953 69.3496 25.7788C69.2692 25.5623 69.1239 25.3644 68.9136 25.1851C68.7033 25.0057 68.4064 24.8325 68.0229 24.6655C67.6457 24.4924 67.1632 24.3161 66.5757 24.1367C65.9325 23.9388 65.3387 23.7192 64.7944 23.478C64.2563 23.2306 63.7863 22.9461 63.3843 22.6245C62.9823 22.2967 62.6699 21.9225 62.4473 21.502C62.2246 21.0752 62.1133 20.5835 62.1133 20.0269C62.1133 19.4764 62.2277 18.9754 62.4565 18.5239C62.6916 18.0724 63.0225 17.6828 63.4492 17.355C63.8822 17.021 64.3924 16.7643 64.98 16.585C65.5675 16.3994 66.217 16.3066 66.9282 16.3066C67.9302 16.3066 68.793 16.4922 69.5166 16.8633C70.2464 17.2344 70.8062 17.7323 71.1958 18.3569C71.5916 18.9816 71.7896 19.6712 71.7896 20.4258H69.4795C69.4795 19.9805 69.3836 19.5877 69.1919 19.2476C69.0063 18.9012 68.7218 18.6291 68.3384 18.4312C67.9611 18.2332 67.4818 18.1343 66.9004 18.1343C66.3499 18.1343 65.8923 18.2178 65.5273 18.3848C65.1624 18.5518 64.8903 18.7775 64.7109 19.062C64.5316 19.3465 64.4419 19.6681 64.4419 20.0269C64.4419 20.2804 64.5007 20.5124 64.6182 20.7227C64.7357 20.9268 64.915 21.1185 65.1562 21.2979C65.3975 21.471 65.7005 21.6349 66.0654 21.7896C66.4303 21.9442 66.8602 22.0926 67.355 22.2349C68.1034 22.4575 68.7559 22.7049 69.3125 22.9771C69.8691 23.243 70.333 23.5461 70.7041 23.8862C71.0752 24.2264 71.3535 24.613 71.5391 25.0459C71.7246 25.4727 71.8174 25.9582 71.8174 26.5024C71.8174 27.0715 71.703 27.5848 71.4741 28.0425C71.2453 28.494 70.9175 28.8805 70.4907 29.2021C70.0701 29.5176 69.563 29.7619 68.9692 29.9351C68.3817 30.1021 67.7261 30.1855 67.0024 30.1855C66.353 30.1855 65.7129 30.099 65.082 29.9258C64.4574 29.7526 63.8883 29.4897 63.375 29.1372C62.8617 28.7785 62.4535 28.3332 62.1504 27.8013C61.8473 27.2632 61.6958 26.6354 61.6958 25.918H64.0244C64.0244 26.3571 64.0986 26.7313 64.2471 27.0405C64.4017 27.3498 64.6151 27.6034 64.8872 27.8013C65.1593 27.993 65.4748 28.1353 65.8335 28.228C66.1984 28.3208 66.5881 28.3672 67.0024 28.3672C67.5467 28.3672 68.0013 28.2899 68.3662 28.1353C68.7373 27.9806 69.0156 27.7642 69.2012 27.4858C69.3867 27.2075 69.4795 26.8859 69.4795 26.521ZM76.0479 19.9619V30H73.8027V19.9619H76.0479ZM73.6543 17.3271C73.6543 16.987 73.7656 16.7056 73.9883 16.4829C74.2171 16.2541 74.5326 16.1396 74.9346 16.1396C75.3304 16.1396 75.6427 16.2541 75.8716 16.4829C76.1004 16.7056 76.2148 16.987 76.2148 17.3271C76.2148 17.6611 76.1004 17.9395 75.8716 18.1621C75.6427 18.3848 75.3304 18.4961 74.9346 18.4961C74.5326 18.4961 74.2171 18.3848 73.9883 18.1621C73.7656 17.9395 73.6543 17.6611 73.6543 17.3271ZM84.9263 19.9619H86.958V29.7217C86.958 30.6247 86.7663 31.3916 86.3828 32.0225C85.9993 32.6533 85.4644 33.1326 84.7778 33.4604C84.0913 33.7944 83.2965 33.9614 82.3936 33.9614C82.0101 33.9614 81.5833 33.9058 81.1133 33.7944C80.6494 33.6831 80.1979 33.5037 79.7588 33.2563C79.3258 33.0151 78.964 32.6966 78.6733 32.3008L79.7217 30.9834C80.0804 31.4102 80.4762 31.7225 80.9092 31.9204C81.3421 32.1183 81.7967 32.2173 82.2729 32.2173C82.7863 32.2173 83.2223 32.1214 83.5811 31.9297C83.946 31.7441 84.2274 31.4689 84.4253 31.104C84.6232 30.7391 84.7222 30.2938 84.7222 29.7681V22.2349L84.9263 19.9619ZM78.1074 25.0923V24.8975C78.1074 24.1367 78.2002 23.444 78.3857 22.8193C78.5713 22.1885 78.8372 21.6473 79.1836 21.1958C79.5299 20.7381 79.9505 20.3887 80.4453 20.1475C80.9401 19.9001 81.4998 19.7764 82.1245 19.7764C82.7739 19.7764 83.3275 19.8939 83.7852 20.1289C84.249 20.3639 84.6356 20.701 84.9448 21.1401C85.2541 21.5731 85.4953 22.0926 85.6685 22.6987C85.8478 23.2987 85.9808 23.9666 86.0674 24.7026V25.3242C85.987 26.0417 85.8509 26.6973 85.6592 27.291C85.4674 27.8848 85.2139 28.3981 84.8984 28.8311C84.583 29.264 84.1934 29.598 83.7295 29.833C83.2718 30.068 82.7306 30.1855 82.106 30.1855C81.4937 30.1855 80.9401 30.0588 80.4453 29.8052C79.9567 29.5516 79.5361 29.196 79.1836 28.7383C78.8372 28.2806 78.5713 27.7425 78.3857 27.124C78.2002 26.4993 78.1074 25.8221 78.1074 25.0923ZM80.3433 24.8975V25.0923C80.3433 25.55 80.3866 25.9767 80.4731 26.3726C80.5659 26.7684 80.7051 27.1178 80.8906 27.4209C81.0824 27.7178 81.3236 27.9528 81.6143 28.126C81.9111 28.293 82.2606 28.3765 82.6626 28.3765C83.1883 28.3765 83.6182 28.2651 83.9521 28.0425C84.2923 27.8198 84.5521 27.5199 84.7314 27.1426C84.917 26.7591 85.0469 26.3324 85.1211 25.8623V24.1831C85.084 23.8182 85.0067 23.478 84.8892 23.1626C84.7778 22.8472 84.6263 22.5719 84.4346 22.3369C84.2428 22.0957 84.0016 21.9102 83.7109 21.7803C83.4202 21.6442 83.077 21.5762 82.6812 21.5762C82.2791 21.5762 81.9297 21.6628 81.6328 21.8359C81.3359 22.0091 81.0916 22.2472 80.8999 22.5503C80.7144 22.8534 80.5752 23.2059 80.4824 23.6079C80.3896 24.0099 80.3433 24.4398 80.3433 24.8975ZM91.4946 22.105V30H89.2588V19.9619H91.3647L91.4946 22.105ZM91.0957 24.6099L90.3721 24.6006C90.3783 23.8893 90.4772 23.2368 90.6689 22.6431C90.8669 22.0493 91.139 21.5391 91.4854 21.1123C91.8379 20.6855 92.2585 20.3577 92.7471 20.1289C93.2357 19.8939 93.7799 19.7764 94.3799 19.7764C94.8623 19.7764 95.2983 19.8444 95.688 19.9805C96.0838 20.1104 96.4209 20.3237 96.6992 20.6206C96.9837 20.9175 97.2002 21.304 97.3486 21.7803C97.4971 22.2503 97.5713 22.8286 97.5713 23.5151V30H95.3262V23.5059C95.3262 23.0234 95.255 22.6431 95.1128 22.3647C94.9767 22.0802 94.7757 21.8792 94.5098 21.7617C94.25 21.638 93.9253 21.5762 93.5356 21.5762C93.1522 21.5762 92.8089 21.6566 92.5059 21.8174C92.2028 21.9782 91.9461 22.1978 91.7358 22.4761C91.5317 22.7544 91.374 23.076 91.2627 23.4409C91.1514 23.8058 91.0957 24.1955 91.0957 24.6099ZM106.979 19.9619V30H104.733V19.9619H106.979ZM104.585 17.3271C104.585 16.987 104.696 16.7056 104.919 16.4829C105.148 16.2541 105.463 16.1396 105.865 16.1396C106.261 16.1396 106.573 16.2541 106.802 16.4829C107.031 16.7056 107.146 16.987 107.146 17.3271C107.146 17.6611 107.031 17.9395 106.802 18.1621C106.573 18.3848 106.261 18.4961 105.865 18.4961C105.463 18.4961 105.148 18.3848 104.919 18.1621C104.696 17.9395 104.585 17.6611 104.585 17.3271ZM111.645 22.105V30H109.409V19.9619H111.515L111.645 22.105ZM111.246 24.6099L110.522 24.6006C110.529 23.8893 110.628 23.2368 110.819 22.6431C111.017 22.0493 111.289 21.5391 111.636 21.1123C111.988 20.6855 112.409 20.3577 112.897 20.1289C113.386 19.8939 113.93 19.7764 114.53 19.7764C115.013 19.7764 115.449 19.8444 115.838 19.9805C116.234 20.1104 116.571 20.3237 116.85 20.6206C117.134 20.9175 117.351 21.304 117.499 21.7803C117.647 22.2503 117.722 22.8286 117.722 23.5151V30H115.477V23.5059C115.477 23.0234 115.405 22.6431 115.263 22.3647C115.127 22.0802 114.926 21.8792 114.66 21.7617C114.4 21.638 114.076 21.5762 113.686 21.5762C113.303 21.5762 112.959 21.6566 112.656 21.8174C112.353 21.9782 112.097 22.1978 111.886 22.4761C111.682 22.7544 111.524 23.076 111.413 23.4409C111.302 23.8058 111.246 24.1955 111.246 24.6099ZM127.463 27.7734L129.782 19.9619H131.211L130.821 22.2998L128.483 30H127.203L127.463 27.7734ZM126.099 19.9619L127.908 27.8105L128.057 30H126.628L123.91 19.9619H126.099ZM133.382 27.7178L135.135 19.9619H137.315L134.606 30H133.178L133.382 27.7178ZM131.452 19.9619L133.744 27.6807L134.031 30H132.751L130.385 22.2905L129.996 19.9619H131.452ZM141.23 19.9619V30H138.985V19.9619H141.23ZM138.837 17.3271C138.837 16.987 138.948 16.7056 139.171 16.4829C139.4 16.2541 139.715 16.1396 140.117 16.1396C140.513 16.1396 140.825 16.2541 141.054 16.4829C141.283 16.7056 141.397 16.987 141.397 17.3271C141.397 17.6611 141.283 17.9395 141.054 18.1621C140.825 18.3848 140.513 18.4961 140.117 18.4961C139.715 18.4961 139.4 18.3848 139.171 18.1621C138.948 17.9395 138.837 17.6611 138.837 17.3271ZM148.281 19.9619V21.5947H142.622V19.9619H148.281ZM144.255 17.5034H146.491V27.2261C146.491 27.5353 146.534 27.7734 146.621 27.9404C146.713 28.1012 146.84 28.2095 147.001 28.2651C147.162 28.3208 147.35 28.3486 147.567 28.3486C147.722 28.3486 147.87 28.3394 148.012 28.3208C148.154 28.3022 148.269 28.2837 148.355 28.2651L148.365 29.9722C148.179 30.0278 147.963 30.0773 147.715 30.1206C147.474 30.1639 147.196 30.1855 146.88 30.1855C146.367 30.1855 145.912 30.0959 145.517 29.9165C145.121 29.731 144.812 29.431 144.589 29.0166C144.366 28.6022 144.255 28.0518 144.255 27.3652V17.5034ZM152.215 15.75V30H149.988V15.75H152.215ZM151.825 24.6099L151.102 24.6006C151.108 23.9079 151.204 23.2677 151.389 22.6802C151.581 22.0926 151.847 21.5824 152.187 21.1494C152.533 20.7103 152.948 20.3732 153.43 20.1382C153.913 19.897 154.448 19.7764 155.035 19.7764C155.53 19.7764 155.975 19.8444 156.371 19.9805C156.773 20.1165 157.119 20.3361 157.41 20.6392C157.701 20.936 157.92 21.3257 158.069 21.8081C158.223 22.2843 158.301 22.8657 158.301 23.5522V30H156.056V23.5337C156.056 23.0513 155.985 22.6678 155.842 22.3833C155.706 22.0988 155.505 21.8947 155.239 21.771C154.973 21.6411 154.649 21.5762 154.265 21.5762C153.863 21.5762 153.507 21.6566 153.198 21.8174C152.895 21.9782 152.642 22.1978 152.438 22.4761C152.233 22.7544 152.079 23.076 151.974 23.4409C151.875 23.8058 151.825 24.1955 151.825 24.6099ZM167.847 16.4922V30H165.519V16.4922H167.847ZM175.965 16.4922L170.491 22.9956L167.374 26.2983L166.966 23.9883L169.192 21.2422L173.126 16.4922H175.965ZM173.46 30L169.016 23.5986L170.621 22.0122L176.225 30H173.46ZM182.96 27.9868V23.1997C182.96 22.841 182.895 22.5317 182.765 22.272C182.635 22.0122 182.437 21.8112 182.171 21.6689C181.912 21.5267 181.584 21.4556 181.188 21.4556C180.823 21.4556 180.508 21.5174 180.242 21.6411C179.976 21.7648 179.769 21.9318 179.62 22.1421C179.472 22.3524 179.397 22.5905 179.397 22.8564H177.171C177.171 22.4606 177.267 22.0771 177.458 21.7061C177.65 21.335 177.929 21.0041 178.293 20.7134C178.658 20.4227 179.094 20.1938 179.602 20.0269C180.109 19.8599 180.678 19.7764 181.309 19.7764C182.063 19.7764 182.731 19.9032 183.312 20.1567C183.9 20.4103 184.361 20.7938 184.695 21.3071C185.035 21.8143 185.205 22.4513 185.205 23.2183V27.6807C185.205 28.1383 185.236 28.5496 185.298 28.9146C185.366 29.2733 185.462 29.5856 185.585 29.8516V30H183.294C183.189 29.7588 183.105 29.4526 183.043 29.0815C182.988 28.7043 182.96 28.3394 182.96 27.9868ZM183.285 23.8955L183.303 25.2778H181.698C181.284 25.2778 180.919 25.318 180.604 25.3984C180.288 25.4727 180.025 25.584 179.815 25.7324C179.605 25.8809 179.447 26.0602 179.342 26.2705C179.237 26.4808 179.184 26.7189 179.184 26.9849C179.184 27.2508 179.246 27.4951 179.37 27.7178C179.493 27.9342 179.673 28.1043 179.908 28.228C180.149 28.3517 180.44 28.4136 180.78 28.4136C181.237 28.4136 181.636 28.3208 181.977 28.1353C182.323 27.9435 182.595 27.7116 182.793 27.4395C182.991 27.1611 183.096 26.8983 183.108 26.6509L183.832 27.6436C183.758 27.8971 183.631 28.1693 183.452 28.46C183.272 28.7507 183.037 29.029 182.747 29.2949C182.462 29.5547 182.119 29.7681 181.717 29.9351C181.321 30.1021 180.863 30.1855 180.344 30.1855C179.688 30.1855 179.104 30.0557 178.59 29.7959C178.077 29.5299 177.675 29.1743 177.384 28.729C177.094 28.2775 176.948 27.7673 176.948 27.1982C176.948 26.6663 177.047 26.1963 177.245 25.7881C177.449 25.3737 177.746 25.0273 178.136 24.749C178.532 24.4707 179.014 24.2604 179.583 24.1182C180.152 23.9697 180.801 23.8955 181.531 23.8955H183.285ZM189.797 15.75V30H187.552V15.75H189.797ZM196.032 19.9619L191.662 24.8047L189.269 27.2539L188.684 25.3613L190.493 23.1255L193.332 19.9619H196.032ZM193.814 30L190.558 25.2871L191.968 23.7192L196.403 30H193.814ZM203.11 27.9868V23.1997C203.11 22.841 203.045 22.5317 202.916 22.272C202.786 22.0122 202.588 21.8112 202.322 21.6689C202.062 21.5267 201.734 21.4556 201.338 21.4556C200.973 21.4556 200.658 21.5174 200.392 21.6411C200.126 21.7648 199.919 21.9318 199.771 22.1421C199.622 22.3524 199.548 22.5905 199.548 22.8564H197.321C197.321 22.4606 197.417 22.0771 197.609 21.7061C197.801 21.335 198.079 21.0041 198.444 20.7134C198.809 20.4227 199.245 20.1938 199.752 20.0269C200.259 19.8599 200.828 19.7764 201.459 19.7764C202.214 19.7764 202.882 19.9032 203.463 20.1567C204.05 20.4103 204.511 20.7938 204.845 21.3071C205.185 21.8143 205.355 22.4513 205.355 23.2183V27.6807C205.355 28.1383 205.386 28.5496 205.448 28.9146C205.516 29.2733 205.612 29.5856 205.736 29.8516V30H203.444C203.339 29.7588 203.256 29.4526 203.194 29.0815C203.138 28.7043 203.11 28.3394 203.11 27.9868ZM203.435 23.8955L203.454 25.2778H201.849C201.434 25.2778 201.069 25.318 200.754 25.3984C200.438 25.4727 200.176 25.584 199.965 25.7324C199.755 25.8809 199.597 26.0602 199.492 26.2705C199.387 26.4808 199.334 26.7189 199.334 26.9849C199.334 27.2508 199.396 27.4951 199.52 27.7178C199.644 27.9342 199.823 28.1043 200.058 28.228C200.299 28.3517 200.59 28.4136 200.93 28.4136C201.388 28.4136 201.787 28.3208 202.127 28.1353C202.473 27.9435 202.745 27.7116 202.943 27.4395C203.141 27.1611 203.246 26.8983 203.259 26.6509L203.982 27.6436C203.908 27.8971 203.781 28.1693 203.602 28.46C203.423 28.7507 203.188 29.029 202.897 29.2949C202.612 29.5547 202.269 29.7681 201.867 29.9351C201.471 30.1021 201.014 30.1855 200.494 30.1855C199.839 30.1855 199.254 30.0557 198.741 29.7959C198.227 29.5299 197.825 29.1743 197.535 28.729C197.244 28.2775 197.099 27.7673 197.099 27.1982C197.099 26.6663 197.198 26.1963 197.396 25.7881C197.6 25.3737 197.896 25.0273 198.286 24.749C198.682 24.4707 199.164 24.2604 199.733 24.1182C200.302 23.9697 200.952 23.8955 201.682 23.8955H203.435ZM207.267 25.0923V24.8789C207.267 24.1553 207.372 23.4842 207.582 22.8657C207.792 22.241 208.095 21.6999 208.491 21.2422C208.893 20.7783 209.382 20.4196 209.957 20.166C210.538 19.9062 211.194 19.7764 211.924 19.7764C212.66 19.7764 213.315 19.9062 213.891 20.166C214.472 20.4196 214.964 20.7783 215.366 21.2422C215.768 21.6999 216.074 22.241 216.284 22.8657C216.494 23.4842 216.6 24.1553 216.6 24.8789V25.0923C216.6 25.8159 216.494 26.487 216.284 27.1055C216.074 27.724 215.768 28.2651 215.366 28.729C214.964 29.1867 214.475 29.5454 213.9 29.8052C213.325 30.0588 212.672 30.1855 211.942 30.1855C211.206 30.1855 210.548 30.0588 209.966 29.8052C209.391 29.5454 208.903 29.1867 208.5 28.729C208.098 28.2651 207.792 27.724 207.582 27.1055C207.372 26.487 207.267 25.8159 207.267 25.0923ZM209.502 24.8789V25.0923C209.502 25.5438 209.549 25.9705 209.642 26.3726C209.734 26.7746 209.88 27.1271 210.078 27.4302C210.276 27.7332 210.529 27.9714 210.838 28.1445C211.148 28.3177 211.516 28.4043 211.942 28.4043C212.357 28.4043 212.715 28.3177 213.019 28.1445C213.328 27.9714 213.581 27.7332 213.779 27.4302C213.977 27.1271 214.123 26.7746 214.215 26.3726C214.314 25.9705 214.364 25.5438 214.364 25.0923V24.8789C214.364 24.4336 214.314 24.013 214.215 23.6172C214.123 23.2152 213.974 22.8595 213.77 22.5503C213.572 22.241 213.319 21.9998 213.009 21.8267C212.706 21.6473 212.344 21.5576 211.924 21.5576C211.503 21.5576 211.138 21.6473 210.829 21.8267C210.526 21.9998 210.276 22.241 210.078 22.5503C209.88 22.8595 209.734 23.2152 209.642 23.6172C209.549 24.013 209.502 24.4336 209.502 24.8789Z" fill="black"/>
</svg>
